<svg width="96" height="146" viewBox="0 0 96 146" fill="none" xmlns="http://www.w3.org/2000/svg">
<g filter="url(#filter0_d_1_73)">
<path fill-rule="evenodd" clip-rule="evenodd" d="M88.7997 73.0192C92.9708 66.0669 95.37 57.9231 95.37 49.2171C95.37 23.6921 74.7469 3 49.307 3C23.8672 3 3.24405 23.6921 3.24405 49.2171C3.24405 57.9234 5.6434 66.0674 9.81484 73.0199L48.4403 140.145C48.8249 140.813 49.7892 140.813 50.1738 140.145L88.7997 73.0192ZM60.8228 49.217C60.8228 55.5983 55.667 60.7713 49.307 60.7713C42.9471 60.7713 37.7913 55.5983 37.7913 49.217C37.7913 42.8358 42.9471 37.6628 49.307 37.6628C55.667 37.6628 60.8228 42.8358 60.8228 49.217Z" fill="white"/>
</g>
<defs>
<filter id="filter0_d_1_73" x="0.244049" y="0" width="100.126" height="145.646" filterUnits="userSpaceOnUse" color-interpolation-filters="sRGB">
<feFlood flood-opacity="0" result="BackgroundImageFix"/>
<feColorMatrix in="SourceAlpha" type="matrix" values="0 0 0 0 0 0 0 0 0 0 0 0 0 0 0 0 0 0 127 0" result="hardAlpha"/>
<feOffset dx="1" dy="1"/>
<feGaussianBlur stdDeviation="2"/>
<feComposite in2="hardAlpha" operator="out"/>
<feColorMatrix type="matrix" values="0 0 0 0 0 0 0 0 0 0 0 0 0 0 0 0 0 0 0.25 0"/>
<feBlend mode="normal" in2="BackgroundImageFix" result="effect1_dropShadow_1_73"/>
<feBlend mode="normal" in="SourceGraphic" in2="effect1_dropShadow_1_73" result="shape"/>
</filter>
</defs>
</svg>
